<mxfile host="app.diagrams.net" modified="2023-03-28T06:29:43.296Z" agent="Mozilla/5.0 (Windows NT 10.0; Win64; x64) AppleWebKit/537.36 (KHTML, like Gecko) Chrome/111.0.0.0 Safari/537.36 Edg/111.0.1661.54" etag="5YhVr4MBh7eZcWznsJx1" version="21.1.1" type="github">
  <diagram name="第 1 页" id="ydfWIhaEGLxtbmc5iYuI">
    <mxGraphModel dx="897" dy="176" grid="1" gridSize="10" guides="1" tooltips="1" connect="1" arrows="1" fold="1" page="0" pageScale="1" pageWidth="827" pageHeight="1169" math="1" shadow="0">
      <root>
        <mxCell id="0" />
        <mxCell id="1" parent="0" />
        <mxCell id="ERm1mdS63n6slfigO-xv-26" style="orthogonalLoop=1;jettySize=auto;html=1;endFill=1;movable=1;resizable=1;rotatable=1;deletable=1;editable=1;locked=0;connectable=1;entryX=0;entryY=0;entryDx=0;entryDy=0;exitX=0.986;exitY=0.267;exitDx=0;exitDy=0;exitPerimeter=0;" parent="1" source="ERm1mdS63n6slfigO-xv-6" target="8cyVTwTjGE4YOZVXD0gR-34" edge="1">
          <mxGeometry relative="1" as="geometry">
            <mxPoint x="370" y="530" as="sourcePoint" />
            <mxPoint x="540" y="660" as="targetPoint" />
          </mxGeometry>
        </mxCell>
        <mxCell id="ERm1mdS63n6slfigO-xv-6" value="云服务器" style="text;html=1;align=center;verticalAlign=middle;resizable=0;points=[];autosize=1;strokeColor=none;fillColor=none;" parent="1" vertex="1">
          <mxGeometry x="295" y="530" width="70" height="30" as="geometry" />
        </mxCell>
        <mxCell id="ERm1mdS63n6slfigO-xv-11" value="" style="endArrow=classic;html=1;rounded=0;" parent="1" edge="1">
          <mxGeometry width="50" height="50" relative="1" as="geometry">
            <mxPoint x="120" y="680" as="sourcePoint" />
            <mxPoint x="280" y="525" as="targetPoint" />
          </mxGeometry>
        </mxCell>
        <mxCell id="ERm1mdS63n6slfigO-xv-14" value="托管密文神经网络模型" style="text;html=1;align=center;verticalAlign=middle;resizable=0;points=[];autosize=1;strokeColor=none;fillColor=none;" parent="1" vertex="1">
          <mxGeometry x="20" y="580" width="140" height="30" as="geometry" />
        </mxCell>
        <mxCell id="ERm1mdS63n6slfigO-xv-16" value="" style="endArrow=classic;html=1;rounded=0;" parent="1" edge="1">
          <mxGeometry width="50" height="50" relative="1" as="geometry">
            <mxPoint x="570" y="675" as="sourcePoint" />
            <mxPoint x="380" y="525" as="targetPoint" />
          </mxGeometry>
        </mxCell>
        <mxCell id="ERm1mdS63n6slfigO-xv-20" value="密文待预测数据" style="text;html=1;align=center;verticalAlign=middle;resizable=0;points=[];autosize=1;strokeColor=none;fillColor=none;" parent="1" vertex="1">
          <mxGeometry x="570" y="620" width="110" height="30" as="geometry" />
        </mxCell>
        <mxCell id="8cyVTwTjGE4YOZVXD0gR-19" value="" style="endArrow=none;html=1;rounded=0;" parent="1" edge="1">
          <mxGeometry width="50" height="50" relative="1" as="geometry">
            <mxPoint x="150" y="710" as="sourcePoint" />
            <mxPoint x="530" y="710" as="targetPoint" />
          </mxGeometry>
        </mxCell>
        <mxCell id="8cyVTwTjGE4YOZVXD0gR-23" value="密文推理结果" style="text;html=1;align=center;verticalAlign=middle;resizable=0;points=[];autosize=1;strokeColor=none;fillColor=none;" parent="1" vertex="1">
          <mxGeometry x="290" y="590" width="100" height="30" as="geometry" />
        </mxCell>
        <mxCell id="8cyVTwTjGE4YOZVXD0gR-27" value="" style="endArrow=classic;html=1;rounded=0;exitX=0;exitY=1;exitDx=0;exitDy=0;entryX=1.09;entryY=-0.1;entryDx=0;entryDy=0;entryPerimeter=0;" parent="1" edge="1" target="ERm1mdS63n6slfigO-xv-1">
          <mxGeometry width="50" height="50" relative="1" as="geometry">
            <mxPoint x="290" y="540" as="sourcePoint" />
            <mxPoint x="140" y="680" as="targetPoint" />
          </mxGeometry>
        </mxCell>
        <mxCell id="8cyVTwTjGE4YOZVXD0gR-35" value="" style="group" parent="1" vertex="1" connectable="0">
          <mxGeometry x="540" y="680" width="50" height="80" as="geometry" />
        </mxCell>
        <mxCell id="8cyVTwTjGE4YOZVXD0gR-34" value="" style="image;html=1;image=img/lib/clip_art/people/Suit_Man_128x128.png" parent="8cyVTwTjGE4YOZVXD0gR-35" vertex="1">
          <mxGeometry width="50" height="60" as="geometry" />
        </mxCell>
        <mxCell id="ERm1mdS63n6slfigO-xv-3" value="用户" style="text;html=1;align=center;verticalAlign=middle;resizable=0;points=[];autosize=1;strokeColor=none;fillColor=none;container=0;" parent="8cyVTwTjGE4YOZVXD0gR-35" vertex="1">
          <mxGeometry y="50" width="50" height="30" as="geometry" />
        </mxCell>
        <mxCell id="8cyVTwTjGE4YOZVXD0gR-47" value="" style="group" parent="1" vertex="1" connectable="0">
          <mxGeometry x="530" y="610" width="50" height="40" as="geometry" />
        </mxCell>
        <mxCell id="8cyVTwTjGE4YOZVXD0gR-37" value="" style="sketch=0;pointerEvents=1;shadow=0;dashed=0;html=1;strokeColor=none;fillColor=#505050;labelPosition=center;verticalLabelPosition=bottom;verticalAlign=top;outlineConnect=0;align=center;shape=mxgraph.office.security.lock_with_key_security_orange;" parent="8cyVTwTjGE4YOZVXD0gR-47" vertex="1">
          <mxGeometry x="30" y="20" width="20" height="20" as="geometry" />
        </mxCell>
        <mxCell id="8cyVTwTjGE4YOZVXD0gR-46" value="" style="sketch=0;aspect=fixed;pointerEvents=1;shadow=0;dashed=0;html=1;strokeColor=none;labelPosition=center;verticalLabelPosition=bottom;verticalAlign=top;align=center;fillColor=#00188D;shape=mxgraph.mscae.enterprise.document" parent="8cyVTwTjGE4YOZVXD0gR-47" vertex="1">
          <mxGeometry width="20" height="30" as="geometry" />
        </mxCell>
        <mxCell id="8cyVTwTjGE4YOZVXD0gR-50" value="" style="group" parent="1" vertex="1" connectable="0">
          <mxGeometry x="90" y="610" width="50" height="40" as="geometry" />
        </mxCell>
        <mxCell id="8cyVTwTjGE4YOZVXD0gR-38" value="" style="sketch=0;pointerEvents=1;shadow=0;dashed=0;html=1;strokeColor=none;fillColor=#505050;labelPosition=center;verticalLabelPosition=bottom;verticalAlign=top;outlineConnect=0;align=center;shape=mxgraph.office.security.lock_with_key_security_blue;container=0;" parent="8cyVTwTjGE4YOZVXD0gR-50" vertex="1">
          <mxGeometry x="30" y="20" width="20" height="20" as="geometry" />
        </mxCell>
        <mxCell id="ERm1mdS63n6slfigO-xv-34" value="" style="sketch=0;outlineConnect=0;fontColor=#232F3E;gradientColor=none;fillColor=#067F68;strokeColor=none;dashed=0;verticalLabelPosition=bottom;verticalAlign=top;align=center;html=1;fontSize=12;fontStyle=0;aspect=fixed;pointerEvents=1;shape=mxgraph.aws4.sagemaker_model;container=0;" parent="8cyVTwTjGE4YOZVXD0gR-50" vertex="1">
          <mxGeometry width="30" height="30" as="geometry" />
        </mxCell>
        <mxCell id="8cyVTwTjGE4YOZVXD0gR-56" value="" style="group" parent="1" vertex="1" connectable="0">
          <mxGeometry x="245" y="580" width="50" height="40" as="geometry" />
        </mxCell>
        <mxCell id="8cyVTwTjGE4YOZVXD0gR-57" value="" style="shape=image;html=1;verticalAlign=top;verticalLabelPosition=bottom;labelBackgroundColor=#ffffff;imageAspect=0;aspect=fixed;image=https://cdn4.iconfinder.com/data/icons/ionicons/512/icon-document-text-128.png" parent="8cyVTwTjGE4YOZVXD0gR-56" vertex="1">
          <mxGeometry width="40" height="40" as="geometry" />
        </mxCell>
        <mxCell id="8cyVTwTjGE4YOZVXD0gR-58" value="" style="sketch=0;pointerEvents=1;shadow=0;dashed=0;html=1;strokeColor=none;fillColor=#505050;labelPosition=center;verticalLabelPosition=bottom;verticalAlign=top;outlineConnect=0;align=center;shape=mxgraph.office.security.lock_with_key_security_orange;container=0;" parent="8cyVTwTjGE4YOZVXD0gR-56" vertex="1">
          <mxGeometry x="30" y="20" width="20" height="20" as="geometry" />
        </mxCell>
        <mxCell id="8cyVTwTjGE4YOZVXD0gR-59" value="" style="group" parent="1" vertex="1" connectable="0">
          <mxGeometry x="380" y="580" width="50" height="40" as="geometry" />
        </mxCell>
        <mxCell id="8cyVTwTjGE4YOZVXD0gR-60" value="" style="shape=image;html=1;verticalAlign=top;verticalLabelPosition=bottom;labelBackgroundColor=#ffffff;imageAspect=0;aspect=fixed;image=https://cdn4.iconfinder.com/data/icons/ionicons/512/icon-document-text-128.png" parent="8cyVTwTjGE4YOZVXD0gR-59" vertex="1">
          <mxGeometry width="40" height="40" as="geometry" />
        </mxCell>
        <mxCell id="8cyVTwTjGE4YOZVXD0gR-61" value="" style="sketch=0;pointerEvents=1;shadow=0;dashed=0;html=1;strokeColor=none;fillColor=#505050;labelPosition=center;verticalLabelPosition=bottom;verticalAlign=top;outlineConnect=0;align=center;shape=mxgraph.office.security.lock_with_key_security_orange;container=0;" parent="8cyVTwTjGE4YOZVXD0gR-59" vertex="1">
          <mxGeometry x="30" y="20" width="20" height="20" as="geometry" />
        </mxCell>
        <mxCell id="8cyVTwTjGE4YOZVXD0gR-72" value="" style="sketch=0;aspect=fixed;pointerEvents=1;shadow=0;dashed=0;html=1;labelPosition=center;verticalLabelPosition=bottom;verticalAlign=top;align=center;shape=mxgraph.mscae.enterprise.internet;fillColor=#7EA6E0;" parent="1" vertex="1">
          <mxGeometry x="295" y="490" width="70" height="40" as="geometry" />
        </mxCell>
        <mxCell id="8cyVTwTjGE4YOZVXD0gR-73" value="" style="group" parent="1" vertex="1" connectable="0">
          <mxGeometry x="280" y="710" width="100" height="30" as="geometry" />
        </mxCell>
        <mxCell id="8cyVTwTjGE4YOZVXD0gR-41" value="" style="sketch=0;pointerEvents=1;shadow=0;dashed=0;html=1;strokeColor=none;labelPosition=center;verticalLabelPosition=bottom;verticalAlign=top;outlineConnect=0;align=center;shape=mxgraph.office.security.key_permissions;fillColor=#DA4026;container=0;" parent="8cyVTwTjGE4YOZVXD0gR-73" vertex="1">
          <mxGeometry x="90" y="10" width="10" height="20" as="geometry" />
        </mxCell>
        <mxCell id="8cyVTwTjGE4YOZVXD0gR-20" value="共同掌握密钥" style="text;html=1;align=center;verticalAlign=middle;resizable=0;points=[];autosize=1;strokeColor=none;fillColor=none;container=0;" parent="8cyVTwTjGE4YOZVXD0gR-73" vertex="1">
          <mxGeometry width="100" height="30" as="geometry" />
        </mxCell>
        <mxCell id="8cyVTwTjGE4YOZVXD0gR-75" value="" style="group" parent="1" vertex="1" connectable="0">
          <mxGeometry x="70" y="690" width="80" height="80" as="geometry" />
        </mxCell>
        <mxCell id="ERm1mdS63n6slfigO-xv-2" value="服务提供商" style="text;html=1;align=center;verticalAlign=middle;resizable=0;points=[];autosize=1;strokeColor=none;fillColor=none;container=0;" parent="8cyVTwTjGE4YOZVXD0gR-75" vertex="1">
          <mxGeometry y="50" width="80" height="30" as="geometry" />
        </mxCell>
        <mxCell id="8cyVTwTjGE4YOZVXD0gR-40" value="" style="sketch=0;pointerEvents=1;shadow=0;dashed=0;html=1;strokeColor=none;labelPosition=center;verticalLabelPosition=bottom;verticalAlign=top;outlineConnect=0;align=center;shape=mxgraph.office.security.key_permissions;fillColor=#2072B8;container=0;" parent="8cyVTwTjGE4YOZVXD0gR-75" vertex="1">
          <mxGeometry x="70" y="30" width="10" height="20" as="geometry" />
        </mxCell>
        <mxCell id="ERm1mdS63n6slfigO-xv-1" value="" style="image;points=[];aspect=fixed;html=1;align=center;shadow=0;dashed=0;image=img/lib/allied_telesis/computer_and_terminals/Personal_Computer_with_Server.svg;container=0;" parent="8cyVTwTjGE4YOZVXD0gR-75" vertex="1">
          <mxGeometry x="20" width="50" height="50" as="geometry" />
        </mxCell>
      </root>
    </mxGraphModel>
  </diagram>
</mxfile>
